 <svg  version="1.0" xmlns="http://www.w3.org/2000/svg"  width="128.000000pt" height="128.000000pt" viewBox="0 0 128.000000 128.000000"  preserveAspectRatio="xMidYMid meet">  <g transform="translate(0.000000,128.000000) scale(0.100000,-0.100000)" fill="#3877ad" stroke="none"> <path d="M133 1210 c-2 -3 -8 -5 -11 -5 -14 0 -49 -31 -55 -48 -4 -10 -7 -255 -7 -545 l-1 -527 22 -17 c19 -16 49 -18 298 -18 224 0 281 3 297 14 16 12 20 31 24 130 l5 117 35 27 c19 15 37 26 40 24 3 -2 10 -20 15 -39 12 -44 27 -51 54 -24 16 16 21 34 21 70 0 54 17 81 51 81 31 0 69 44 69 80 0 34 -46 90 -74 90 -19 0 -7 47 23 89 27 38 27 73 -1 106 -20 22 -36 28 -89 34 -4 1 -6 20 -6 43 0 87 -96 117 -154 49 l-25 -31 -12 34 c-9 24 -25 40 -55 55 -23 12 -35 20 -27 19 8 0 23 2 33 7 34 15 171 0 217 -24 117 -61 160 -127 170 -262 5 -69 12 -97 38 -146 31 -60 30 -83 -4 -83 -12 0 -30 -37 -26 -53 4 -13 -29 -183 -38 -197 -5 -9 -33 -12 -92 -11 -112 2 -130 -11 -136 -98 -5 -65 6 -91 39 -91 23 0 32 15 39 65 l5 40 82 0 c94 1 133 20 145 71 3 16 14 65 23 109 14 62 25 88 51 117 41 46 36 79 -32 198 -8 14 -13 48 -13 75 2 49 -8 110 -19 130 -4 6 -7 15 -8 22 -5 29 -81 122 -125 151 -209 138 -492 81 -622 -125 -108 -172 -93 -389 37 -538 19 -22 32 -43 30 -47 -2 -3 0 -9 6 -13 13 -8 13 -99 0 -146 -7 -27 -17 -39 -35 -43 -29 -7 -150 -7 -182 1 l-23 5 0 487 c0 374 3 491 13 504 11 16 51 17 507 15 l495 -3 5 -202 c5 -208 9 -228 46 -221 18 3 19 18 22 239 2 203 0 238 -13 249 -12 10 -130 13 -541 14 -289 1 -528 -1 -531 -4z m1075 -252 c2 -233 2 -238 -18 -238 -19 0 -20 6 -20 220 l0 220 -512 0 c-462 0 -513 -2 -530 -17 -17 -15 -18 -45 -18 -525 l0 -508 134 0 134 0 11 63 c20 118 13 153 -45 221 -146 170 -134 417 27 579 67 66 134 101 232 117 165 29 352 -59 416 -195 28 -61 42 -128 35 -173 -4 -31 2 -50 36 -115 47 -89 48 -122 1 -140 -24 -9 -29 -18 -40 -76 -6 -36 -14 -87 -17 -113 -4 -32 -14 -54 -31 -70 -22 -21 -34 -23 -116 -23 l-92 0 -3 -57 c-3 -50 -6 -58 -22 -58 -18 0 -20 7 -20 60 0 52 4 65 25 86 27 26 32 27 135 8 46 -8 74 16 83 71 4 28 9 59 10 70 2 11 7 27 11 36 3 8 5 30 4 48 -3 30 1 35 29 45 17 6 34 14 38 18 4 3 -12 40 -34 80 -38 69 -41 81 -41 150 0 153 -90 261 -249 298 -172 40 -349 -37 -429 -188 -78 -146 -59 -308 51 -440 49 -58 61 -100 54 -192 -3 -42 -9 -84 -13 -93 -6 -15 4 -17 103 -17 l109 0 -4 317 -4 317 -34 40 c-19 22 -34 45 -34 52 0 7 -11 24 -25 38 -29 29 -31 52 -9 84 19 28 67 29 94 2 27 -27 25 -56 -6 -85 l-26 -24 41 -44 41 -44 0 -203 0 -204 28 27 c26 25 28 32 24 82 l-4 54 71 77 c39 43 71 82 71 87 0 5 -11 23 -25 39 -38 45 -15 101 40 101 55 0 78 -56 40 -101 -14 -16 -25 -40 -25 -52 0 -14 -25 -49 -66 -92 l-65 -70 2 -59 c2 -58 2 -60 -39 -95 l-41 -35 -3 -122 -3 -122 -300 0 -300 0 -3 529 c-2 573 -3 564 51 586 12 5 260 8 552 7 l530 -2 3 -237z m-693 26 c-15 -11 -20 -26 -20 -62 0 -26 4 -56 9 -67 7 -16 7 -18 -5 -7 -23 21 -83 15 -108 -12 -24 -25 -25 -64 -6 -123 5 -15 3 -23 -5 -23 -20 0 -41 -29 -47 -65 -5 -30 -1 -41 22 -66 16 -16 36 -29 44 -29 19 0 65 -35 67 -49 1 -6 2 -20 3 -31 0 -12 12 -32 26 -46 21 -21 34 -25 68 -22 l42 3 7 -105 c11 -154 14 -150 -81 -150 l-79 0 1 107 c2 117 2 118 -68 208 -119 152 -107 345 30 482 49 49 84 71 110 72 6 0 1 -6 -10 -15z m293 -51 c21 -29 15 -71 -14 -90 -26 -16 -26 -20 -21 -89 5 -70 4 -73 -24 -100 -22 -21 -32 -25 -40 -17 -9 9 -6 19 10 39 30 38 31 153 1 172 -29 18 -27 76 3 97 25 18 66 12 85 -12z m-98 -166 l-1 -42 -13 31 c-7 16 -25 43 -40 58 -25 28 -25 29 -9 57 l17 28 23 -45 c13 -27 23 -63 23 -87z m-218 56 c10 -9 18 -30 18 -48 0 -22 10 -40 35 -65 19 -19 35 -40 35 -47 0 -23 -25 -14 -60 22 -25 26 -42 35 -66 35 -39 0 -64 22 -64 57 0 55 62 83 102 46z m99 -80 c12 -19 18 -37 15 -41 -11 -11 -65 52 -70 82 -5 28 -5 28 15 10 11 -10 29 -33 40 -51z m229 -63 c0 -5 -6 -15 -12 -22 -7 -7 -32 -34 -55 -60 -43 -48 -53 -50 -53 -12 0 16 9 25 30 33 17 5 30 7 30 3 0 -9 28 37 36 60 6 17 24 16 24 -2z m-373 -15 c24 -17 34 -47 22 -66 -12 -20 48 -79 81 -79 38 0 61 -21 62 -57 1 -43 -17 -63 -58 -63 -39 0 -70 36 -59 70 5 15 -2 27 -26 48 -18 15 -43 29 -57 32 -34 7 -66 51 -57 79 15 48 53 63 92 36z m133 -30 l30 7 0 -51 c0 -47 -2 -51 -22 -47 -13 3 -33 5 -45 5 -26 1 -38 21 -48 80 l-7 44 31 -22 c23 -17 39 -21 61 -16z m372 -62 c41 -37 3 -110 -52 -100 -36 8 -49 -18 -52 -103 -2 -52 -6 -65 -20 -68 -16 -3 -18 6 -18 81 0 71 3 87 20 102 11 10 20 29 20 43 0 54 62 81 102 45z"/> <path d="M555 930 c-4 -7 -3 -16 3 -22 14 -14 45 -2 40 15 -6 16 -34 21 -43 7z"/> <path d="M855 770 c-8 -13 3 -30 20 -30 14 0 27 24 18 34 -10 9 -31 7 -38 -4z"/> <path d="M747 914 c-15 -15 -7 -45 11 -42 9 2 17 12 17 22 0 20 -16 31 -28 20z"/> <path d="M430 780 c0 -13 7 -20 20 -20 13 0 20 7 20 20 0 13 -7 20 -20 20 -13 0 -20 -7 -20 -20z"/> <path d="M402 631 c-13 -8 -6 -41 8 -41 4 0 13 6 19 14 14 17 -8 39 -27 27z"/> <path d="M534 469 c-9 -15 11 -33 30 -26 9 4 13 13 10 22 -7 17 -30 20 -40 4z"/> <path d="M893 544 c-7 -19 11 -39 26 -30 16 10 13 33 -4 40 -9 3 -18 -1 -22 -10z"/> </g> </svg> 